<?xml version="1.0" encoding="iso-8859-1"?>
<!-- Generator: Adobe Illustrator 19.0.0, SVG Export Plug-In . SVG Version: 6.00 Build 0)  -->
<svg version="1.1" id="Capa_1" xmlns="http://www.w3.org/2000/svg" xmlns:xlink="http://www.w3.org/1999/xlink" x="0px" y="0px"
	 viewBox="0 0 503.607 503.607" style="enable-background:new 0 0 503.607 503.607;" xml:space="preserve">
<g>
	<path style="fill:#FFFFFF;" d="M134.057,96.525c-37.084,0-67.147,30.063-67.148,67.148c0,1.285,0.121,2.539,0.193,3.807
		c-0.082,1.535-0.193,3.078-0.193,4.586c-35.361,17.977-57.946,53.967-58.754,93.627c0.16,54.842,44.579,99.261,99.421,99.422
		h43.267l20.346-257.373C160.194,100.413,147.272,96.51,134.057,96.525z"/>
	<path style="fill:#A4C2F7;" d="M418.755,180.459c-0.753-73.591-60.029-133.169-133.615-134.295l83.225,318.951h33.337
		c51.06-0.149,92.416-41.505,92.565-92.566C494.173,227.81,462.608,189.315,418.755,180.459z"/>
	
		<linearGradient id="SVGID_1_" gradientUnits="userSpaceOnUse" x1="-48.9434" y1="648.1512" x2="-48.3104" y2="647.2849" gradientTransform="matrix(436.459 0 0 -318.9508 21474.5801 206843.4844)">
		<stop  offset="0" style="stop-color:#D4E1F4"/>
		<stop  offset="0.1717" style="stop-color:#D4E1F4"/>
		<stop  offset="0.2" style="stop-color:#D4E1F4"/>
		<stop  offset="0.2001" style="stop-color:#DAE4F4"/>
		<stop  offset="0.2007" style="stop-color:#EBEBF4"/>
		<stop  offset="0.2014" style="stop-color:#F6F1F4"/>
		<stop  offset="0.2023" style="stop-color:#FDF4F4"/>
		<stop  offset="0.205" style="stop-color:#FFF5F4"/>
		<stop  offset="0.2522" style="stop-color:#FFF5F4"/>
		<stop  offset="0.26" style="stop-color:#FFF5F4"/>
		<stop  offset="0.26" style="stop-color:#D4E1F4"/>
		<stop  offset="0.3974" style="stop-color:#D4E1F4"/>
		<stop  offset="0.42" style="stop-color:#D4E1F4"/>
		<stop  offset="0.4201" style="stop-color:#DAE4F4"/>
		<stop  offset="0.4207" style="stop-color:#EBEBF4"/>
		<stop  offset="0.4214" style="stop-color:#F6F1F4"/>
		<stop  offset="0.4223" style="stop-color:#FDF4F4"/>
		<stop  offset="0.425" style="stop-color:#FFF5F4"/>
		<stop  offset="0.4894" style="stop-color:#FFF5F4"/>
		<stop  offset="0.5" style="stop-color:#FFF5F4"/>
		<stop  offset="0.5" style="stop-color:#F9F2F4"/>
		<stop  offset="0.5001" style="stop-color:#E8EBF4"/>
		<stop  offset="0.5003" style="stop-color:#DDE5F4"/>
		<stop  offset="0.5005" style="stop-color:#D6E2F4"/>
		<stop  offset="0.501" style="stop-color:#D4E1F4"/>
		<stop  offset="0.7062" style="stop-color:#D4E1F4"/>
		<stop  offset="0.74" style="stop-color:#D4E1F4"/>
		<stop  offset="0.741" style="stop-color:#FFF5F4"/>
		<stop  offset="0.8346" style="stop-color:#FFF5F4"/>
		<stop  offset="0.85" style="stop-color:#FFF5F4"/>
		<stop  offset="0.851" style="stop-color:#D4E1F4"/>
	</linearGradient>
	<path style="fill:url(#SVGID_1_);" d="M394.283,180.459c-0.753-73.591-60.029-133.169-133.615-134.295
		c-46.662,0-52.064,14.009-76.25,50.361c-10.638-7.076-11.446,0-25.18,0c-37.084,0-67.147,30.063-67.148,67.148
		c0,1.285,0.121,2.539,0.193,3.807c-0.082,1.535-0.193,3.078-0.193,4.586c-35.361,17.977-57.946,53.967-58.754,93.627
		c0.16,54.842,44.579,99.261,99.421,99.422H377.23c51.06-0.149,92.416-41.505,92.565-92.566
		C469.702,227.81,438.137,189.315,394.283,180.459L394.283,180.459z"/>
	<g>
		<path style="fill:#428DFF;" d="M377.693,188.852c-4.388-0.005-8.031-3.389-8.359-7.765c-0.328-4.376,2.771-8.265,7.109-8.924
			c14.764-1.967,29.723-1.97,44.488-0.008c4.559,0.705,7.694,4.957,7.02,9.52c-0.673,4.563-4.903,7.728-9.471,7.086
			c-13.117-1.68-26.395-1.683-39.512-0.008C378.545,188.819,378.119,188.852,377.693,188.852z"/>
		<path style="fill:#428DFF;" d="M201.443,172.066c-2.226,0.001-4.361-0.884-5.936-2.458s-2.458-3.709-2.458-5.936
			c0-32.449-26.305-58.754-58.754-58.754s-58.754,26.305-58.754,58.754c0,4.636-3.758,8.393-8.393,8.393s-8.393-3.758-8.393-8.393
			c0-41.72,33.821-75.541,75.541-75.541s75.541,33.821,75.541,75.541c0.001,2.226-0.884,4.361-2.458,5.936
			S203.669,172.066,201.443,172.066z"/>
		<path style="fill:#428DFF;" d="M402.648,373.508h-33.336c-4.636,0-8.393-3.758-8.393-8.393c0-4.636,3.758-8.393,8.393-8.393
			h33.336c46.465-0.053,84.119-37.707,84.172-84.172c-0.198-40.666-28.842-75.639-68.672-83.844
			c-3.925-0.737-6.786-4.138-6.84-8.131c-0.507-69.077-56.149-125.073-125.221-126.016c-43.162,0.608-83.329,22.181-107.672,57.828
			c-1.23,1.857-3.148,3.148-5.331,3.588c-2.183,0.44-4.452-0.008-6.304-1.243c-18.032-11.978-41.19-13.068-60.267-2.835
			s-30.978,30.13-30.971,51.777c0,0.738,0.057,1.467,0.107,2.197l0.074,1.115c0.016,0.311,0.016,0.623,0,0.934l-0.053,1
			c-0.062,1.058-0.127,2.115-0.127,3.148c0.001,3.229-1.853,6.172-4.766,7.566c-32.345,16.692-53.035,49.672-53.988,86.057
			c0.054,50.25,40.774,90.974,91.024,91.033h43.27c4.636,0,8.393,3.758,8.393,8.393c0,4.636-3.758,8.393-8.393,8.393h-43.27
			C48.295,373.438,0.066,325.205,0,265.689c0.78-41.034,23.17-78.607,58.889-98.82c-0.074-1.058-0.135-2.115-0.135-3.197
			c0-26.371,13.752-50.832,36.281-64.538s50.575-14.67,73.993-2.544c27.741-36.753,71.011-58.496,117.057-58.82
			c75.674,0.915,137.673,60.358,141.771,135.926c44.509,12.312,75.437,52.673,75.75,98.852
			C503.544,328.281,458.38,373.446,402.648,373.508L402.648,373.508z"/>
		<path style="fill:#428DFF;" d="M260.197,465.836c-2.226,0.001-4.362-0.884-5.936-2.458c-1.574-1.574-2.458-3.709-2.458-5.936
			V264.393c0-4.636,3.758-8.393,8.393-8.393c4.636,0,8.393,3.758,8.393,8.393v193.049c0.001,2.226-0.884,4.361-2.458,5.936
			C264.558,464.952,262.423,465.837,260.197,465.836L260.197,465.836z"/>
		<path style="fill:#428DFF;" d="M327.344,339.934c-2.227,0.003-4.362-0.883-5.934-2.459l-67.148-67.148
			c-3.234-3.285-3.213-8.563,0.046-11.822c3.259-3.259,8.538-3.28,11.822-0.046l67.148,67.148c2.4,2.4,3.117,6.01,1.819,9.146
			C333.798,337.889,330.739,339.934,327.344,339.934L327.344,339.934z"/>
		<path style="fill:#428DFF;" d="M193.049,339.934c-3.394-0.001-6.454-2.046-7.753-5.182c-1.299-3.136-0.581-6.745,1.819-9.146
			l67.148-67.148c3.285-3.234,8.563-3.213,11.822,0.046s3.28,8.538,0.046,11.822l-67.148,67.148
			C197.412,339.052,195.276,339.937,193.049,339.934L193.049,339.934z"/>
	</g>
</g>
<g>
</g>
<g>
</g>
<g>
</g>
<g>
</g>
<g>
</g>
<g>
</g>
<g>
</g>
<g>
</g>
<g>
</g>
<g>
</g>
<g>
</g>
<g>
</g>
<g>
</g>
<g>
</g>
<g>
</g>
</svg>
